<?xml version="1.0" encoding="UTF-8" standalone="no"?>
<!-- Created with Inkscape (http://www.inkscape.org/) -->

<svg
   xmlns:dc="http://purl.org/dc/elements/1.1/"
   xmlns:cc="http://creativecommons.org/ns#"
   xmlns:rdf="http://www.w3.org/1999/02/22-rdf-syntax-ns#"
   xmlns:svg="http://www.w3.org/2000/svg"
   xmlns="http://www.w3.org/2000/svg"
   xmlns:sodipodi="http://sodipodi.sourceforge.net/DTD/sodipodi-0.dtd"
   xmlns:inkscape="http://www.inkscape.org/namespaces/inkscape"
   width="64px"
   height="64px"
   id="svg3759"
   version="1.1"
   inkscape:version="0.48.5 r10040"
   sodipodi:docname="vinix.svg">
  <defs
     id="defs3761">
    <filter
       inkscape:label="Glow"
       inkscape:menu="Shadows and Glows"
       inkscape:menu-tooltip="Glow of object's own color at the edges"
       color-interpolation-filters="sRGB"
       id="filter4534">
      <feGaussianBlur
         stdDeviation="5"
         result="result91"
         id="feGaussianBlur4536" />
      <feComposite
         in="SourceGraphic"
         operator="over"
         in2="result91"
         id="feComposite4538" />
    </filter>
  </defs>
  <sodipodi:namedview
     id="base"
     pagecolor="#ffffff"
     bordercolor="#666666"
     borderopacity="1.0"
     inkscape:pageopacity="0.0"
     inkscape:pageshadow="2"
     inkscape:zoom="5.6568543"
     inkscape:cx="39.462499"
     inkscape:cy="31.017045"
     inkscape:current-layer="layer3"
     showgrid="true"
     inkscape:document-units="px"
     inkscape:grid-bbox="true"
     inkscape:window-width="1600"
     inkscape:window-height="789"
     inkscape:window-x="0"
     inkscape:window-y="27"
     inkscape:window-maximized="1"
     inkscape:snap-nodes="false" />
  <metadata
     id="metadata3764">
    <rdf:RDF>
      <cc:Work
         rdf:about="">
        <dc:format>image/svg+xml</dc:format>
        <dc:type
           rdf:resource="http://purl.org/dc/dcmitype/StillImage" />
      </cc:Work>
    </rdf:RDF>
  </metadata>
  <g
     inkscape:groupmode="layer"
     id="layer3"
     inkscape:label="Baground"
     style="display:inline">
    <path
       sodipodi:type="arc"
       style="fill:#292626;fill-opacity:0;fill-rule:evenodd;stroke:#292626;stroke-width:1px;stroke-linecap:butt;stroke-linejoin:miter;stroke-opacity:1;filter:url(#filter4534)"
       id="path4285"
       sodipodi:cx="33.18182"
       sodipodi:cy="32.81818"
       sodipodi:rx="29.363636"
       sodipodi:ry="30.272728"
       d="m 62.545456,32.81818 a 29.363636,30.272728 0 1 1 -58.7272721,0 29.363636,30.272728 0 1 1 58.7272721,0 z"
       transform="matrix(1.0285722,0,0,0.98540403,-1.9907826,-0.16093087)" />
  </g>
  <g
     id="layer1"
     inkscape:label="Ring"
     inkscape:groupmode="layer"
     style="display:inline"
     sodipodi:insensitive="true">
    <path
       sodipodi:type="arc"
       style="fill:#292626;fill-opacity:1;fill-rule:evenodd;stroke:#26f3d3;stroke-width:1px;stroke-linecap:butt;stroke-linejoin:miter;stroke-opacity:0.79607843"
       id="path4279"
       sodipodi:cx="37.545456"
       sodipodi:cy="34.272728"
       sodipodi:rx="20.454546"
       sodipodi:ry="20.454546"
       d="m 58.000002,34.272728 a 20.454546,20.454546 0 1 1 -40.909092,0 20.454546,20.454546 0 1 1 40.909092,0 z"
       transform="matrix(1.4218569,0,0,1.3978243,-21.30044,-15.725434)" />
  </g>
  <g
     inkscape:groupmode="layer"
     id="layer5"
     inkscape:label="Logo"
     style="display:inline">
    <path
       style="font-size:medium;font-style:normal;font-variant:normal;font-weight:normal;font-stretch:normal;text-indent:0;text-align:start;text-decoration:none;line-height:normal;letter-spacing:normal;word-spacing:normal;text-transform:none;direction:ltr;block-progression:tb;writing-mode:lr-tb;text-anchor:start;baseline-shift:baseline;color:#000000;fill:#03c3ac;fill-opacity:1;stroke:none;stroke-width:1px;marker:none;visibility:visible;display:inline;overflow:visible;enable-background:accumulate;font-family:Sans;-inkscape-font-specification:Sans"
       d="m 27.71875,18.15625 c -0.97145,-0.151789 -1.654663,0.605374 -2.369653,1.442847 -0.71499,0.837473 -1.214532,1.785159 -1.808935,3.025903 -1.188806,2.481488 -2.270384,5.511579 -3.008912,6.988636 -0.245185,0.490369 -1.126689,1.28718 -2.667614,1.647728 -1.492831,0.349294 -3.442948,0.696738 -5.295454,0.775568 -3.7050131,0.15766 -7.3096593,-0.01705 -7.3096593,-0.01705 l -0.3579545,0.227273 c 0,0 3.6396719,0.382113 7.4119318,0.221591 1.88613,-0.08026 3.80797,-0.232706 5.40625,-0.59375 1.59828,-0.361044 2.764903,-0.673969 3.292446,-1.729055 0.806926,-1.613852 1.9617,-4.678569 3.113804,-7.083445 0.576052,-1.202438 1.200786,-2.283495 1.8125,-3 0.611714,-0.716505 1.334752,-1.141549 1.817847,-1.066065 0.676177,0.105653 1.285105,0.352709 1.783033,0.751783 0.497928,0.399074 0.692918,1.098992 1.14912,2.158032 0.912404,2.11808 1.972195,5.875877 2.78838,12.405359 0.825072,6.600581 2.011144,9.330755 3.46162,10.438391 0.725238,0.553818 1.440173,0.566029 1.977273,0.502841 0.26855,-0.03159 0.401329,-0.05427 0.577414,-0.08877 0.109534,-0.01334 0.19677,-0.04686 0.234375,-0.0625 0.01603,-0.0056 0.124169,-0.04705 0.187263,-0.09002 0.02729,-0.03906 0.101483,-0.05124 0.195996,-0.138335 0.09451,-0.08709 0.135479,-0.104472 0.233929,-0.248218 0.1969,-0.287491 0.339723,-0.525824 0.746435,-1.337511 0.813425,-1.623375 2.088508,-4.689949 4.42402,-10.284648 0.10008,-0.239741 0.657008,-0.923301 1.076704,-1.119318 0.419696,-0.196017 0.888421,-0.252072 1.573864,-0.346591 1.370887,-0.189037 3.092064,-0.293393 4.821022,-0.167614 3.457916,0.251559 6.599432,0.519887 6.599432,0.519887 l 0.05114,-0.113637 c 0,0 -3.000015,-0.603696 -6.534091,-0.860795 -1.767038,-0.12855 -3.552543,-0.234664 -5.048296,-0.02841 -0.747876,0.103128 -1.409634,0.07978 -1.96875,0.340909 -0.559116,0.261133 -1.046617,0.668583 -1.272727,1.210227 -2.331157,5.584268 -3.643083,8.799356 -4.435718,10.381239 -0.396317,0.790942 -0.564923,1.016247 -0.732251,1.185167 -0.05768,0.08421 -0.163054,0.141678 -0.179684,0.160156 -0.02964,0.01075 -0.07611,0.03788 -0.09766,0.04688 -0.04309,0.01792 -0.02339,0.01422 -0.07753,0.03427 -0.10836,0.04009 -0.311003,0.110255 -0.477112,0.129797 -0.332218,0.03908 -0.852912,0.187347 -1.377674,-0.213403 C 36.385302,43.360142 35.030041,40.709078 34.21875,34.21875 33.398571,27.657323 32.460981,23.973553 31.464294,21.659815 30.965951,20.502946 30.438848,19.561153 29.777685,19.03125 29.116522,18.501347 28.497119,18.27787 27.71875,18.15625 z"
       id="path4511"
       inkscape:connector-curvature="0"
       sodipodi:nodetypes="ssssssccsssssssssscccccssssssccsssssccccccssss" />
  </g>
</svg>
